Coordinates
version=1
nRows=43
nColumns=12
inDegrees=yes

Units are S.I. units (second, meters, Newtons, ...)
Angles are in degrees

endheader
time	SC_y	SC_z	SC_x	AC_y	AC_z	AC_x	GH_y	GH_z	GH_yy	EL_x	PS_y
       0.0              -30.06          30.84          50.26          49.34          9.867         -14.26         -13.08          52.17          123.4           50.8           95.0
   0.01773              -30.06          30.84          50.26          49.34          9.867         -14.26         -13.06          52.16          123.4          50.81          95.01
   0.03545              -30.06          30.83          50.26          49.34          9.867         -14.26         -13.05          52.15          123.4          50.81          95.02
   0.05318              -30.06          30.83          50.26          49.34          9.867         -14.26         -13.04          52.14          123.4          50.82          95.02
   0.07091              -30.05          30.83          50.26          49.34          9.867         -14.26         -13.02          52.13          123.3          50.83          95.03
   0.08864              -30.05          30.82          50.26          49.34          9.867         -14.26         -13.01          52.12          123.3          50.83          95.04
    0.1064              -30.05          30.82          50.26          49.34          9.867         -14.26         -12.99          52.11          123.3          50.84          95.05
    0.1241              -30.04          30.81          50.26          49.34          9.867         -14.26         -12.97           52.1          123.3          50.85          95.06
    0.1418              -30.04          30.81          50.27          49.34          9.867         -14.26         -12.95          52.08          123.3          50.86          95.07
    0.1595              -30.04           30.8          50.27          49.34          9.867         -14.26         -12.93          52.07          123.2          50.87          95.08
    0.1773              -30.03           30.8          50.27          49.34          9.866         -14.26         -12.91          52.05          123.2          50.88          95.09
     0.195              -30.03          30.79          50.27          49.34          9.866         -14.26         -12.88          52.03          123.2          50.89          95.11
    0.2127              -30.02          30.78          50.27          49.35          9.866         -14.26         -12.86          52.02          123.2           50.9          95.12
    0.2305              -30.02          30.78          50.28          49.35          9.866         -14.26         -12.83           52.0          123.1          50.91          95.14
    0.2482              -30.01          30.77          50.28          49.35          9.866         -14.26          -12.8          51.97          123.1          50.93          95.15
    0.2659              -30.01          30.76          50.28          49.35          9.866         -14.26         -12.77          51.95          123.1          50.94          95.17
    0.2836               -30.0          30.75          50.28          49.35          9.866         -14.26         -12.73          51.92          123.0          50.96          95.19
    0.3014               -30.0          30.74          50.29          49.35          9.866         -14.27         -12.69           51.9          123.0          50.97          95.21
    0.3191              -29.99          30.73          50.29          49.35          9.865         -14.27         -12.65          51.87          122.9          50.99          95.24
    0.3368              -29.98          30.72          50.29          49.36          9.865         -14.27          -12.6          51.83          122.9          51.01          95.26
    0.3545              -29.97           30.7           50.3          49.36          9.865         -14.27         -12.55          51.79          122.8          51.04          95.29
    0.3723              -29.96          30.69           50.3          49.36          9.865         -14.27          -12.5          51.75          122.8          51.06          95.32
      0.39              -29.95          30.67          50.31          49.36          9.864         -14.27         -12.44          51.71          122.7          51.09          95.36
    0.4077              -29.94          30.65          50.31          49.37          9.864         -14.27         -12.37          51.66          122.6          51.12          95.39
    0.4255              -29.93          30.63          50.32          49.37          9.864         -14.28         -12.29           51.6          122.6          51.15          95.44
    0.4432              -29.91          30.61          50.33          49.37          9.864         -14.28         -12.21          51.54          122.5          51.19          95.48
    0.4609               -29.9          30.59          50.34          49.38          9.863         -14.28         -12.11          51.47          122.4          51.24          95.54
    0.4786              -29.88          30.56          50.34          49.38          9.863         -14.28          -12.0           51.4          122.3          51.28           95.6
    0.4964              -29.86          30.53          50.35          49.39          9.862         -14.29         -11.88          51.31          122.1          51.34          95.66
    0.5141              -29.83          30.49          50.37          49.39          9.862         -14.29         -11.74          51.21          122.0           51.4          95.74
    0.5318              -29.81          30.45          50.38           49.4          9.861          -14.3         -11.59           51.1          121.8          51.47          95.82
    0.5495              -29.78           30.4          50.39          49.41           9.86          -14.3         -11.41          50.97          121.6          51.55          95.92
    0.5673              -29.74          30.35          50.41          49.42          9.859         -14.31          -11.2          50.82          121.4          51.64          96.04
     0.585               -29.7          30.28          50.43          49.43          9.858         -14.31         -10.96          50.64          121.1          51.75          96.17
    0.6027              -29.65          30.21          50.46          49.44          9.857         -14.32         -10.67          50.44          120.8          51.88          96.33
    0.6205              -29.59          30.12          50.48          49.45          9.856         -14.33         -10.34          50.19          120.5          52.03          96.51
    0.6382              -29.53          30.02          50.52          49.47          9.854         -14.34         -9.944          49.91          120.1          52.21          96.73
    0.6559              -29.44          29.89          50.56          49.49          9.852         -14.35         -9.469          49.56          119.5          52.42           97.0
    0.6736              -29.35          29.74           50.6          49.51           9.85         -14.37         -8.894          49.15          118.9          52.68          97.31
    0.6914              -29.23          29.56          50.66          49.54          9.847         -14.39         -8.192          48.64          118.2          52.99           97.7
    0.7091              -29.08          29.33          50.73          49.58          9.843         -14.41         -7.326          48.01          117.3          53.38          98.18
    0.7268              -28.89          29.05          50.82          49.62          9.839         -14.44         -6.245          47.23          116.1          53.86          98.78
    0.7445              -28.66          28.69          50.94          49.68          9.833         -14.48         -4.884          46.25          114.6          54.47          99.53
